Coordinates
version=1
nRows=34
nColumns=33
inDegrees=yes

Units are S.I. units (second, meters, Newtons, ...)
Angles are in degrees.

endheader
time	ground_thorax_rot_x	ground_thorax_rot_y	ground_thorax_rot_z	ground_thorax_tx	ground_thorax_ty	ground_thorax_tz	clav_prot_r	clav_elev_r	scapula_abduction_r	scapula_elevation_r	scapula_upward_rot_r	scapula_winging_r	shoulder_elv_r	plane_of_elev_r	axial_rot_r	elbow_flexion_r	pro_sup_r	wrist_flex_r	wrist_dev_r	clav_prot_l	clav_elev_l	scapula_abduction_l	scapula_elevation_l	scapula_upward_rot_l	scapula_winging_l	shoulder_elv_l	plane_of_elev_l	axial_rot_l	elbow_flexion_l	pro_sup_l	wrist_flex_l	wrist_dev_l	
7.7000	-38.708432	-12.575798	18.272573	-149.134564	795.174293	4.446876	3.820721	-45.000000	39.004898	-45.000000	-23.889771	2782.638387	-474.027870	148.724533	-116.627001	1811.919369	19.743743	18.592659	10.470275	18.140781	39.101902	-41.114050	-44.991308	-43.525324	-3880.204982	69.953700	25.990158	-31.862813	1814.635841	71.177538	3.797634	-15.482608	
7.7100	-38.666817	-12.766339	18.467067	-145.217288	792.744865	4.587080	3.775404	-45.000000	38.978530	-45.000000	-23.883127	2782.884077	-474.383873	148.820133	-116.560669	1811.898689	21.447746	18.589238	10.467410	18.232375	39.110695	-41.157010	-44.984431	-43.604146	-3880.540685	69.728131	26.273961	-30.000310	1812.511793	48.105042	6.105498	-16.518521	
7.7200	-38.619838	-12.965998	18.665133	-141.320117	790.347808	4.740150	3.743640	-45.000000	38.950252	-45.000000	-23.904925	2783.130552	-474.747824	148.925886	-116.420471	1811.840434	22.697840	18.560037	10.504543	18.307619	39.112567	-41.192278	-44.972110	-43.683878	-3880.857951	69.491773	26.520631	-28.500483	1810.638416	28.385434	8.145276	-17.348974	
7.7300	-38.563590	-13.151819	18.850930	-137.452538	787.997471	4.907308	3.686160	-45.000000	38.939423	-45.000000	-23.886964	2783.372673	-475.109485	149.070275	-116.176920	1811.721307	23.159951	18.486295	10.640049	18.431375	39.131280	-41.243220	-44.950045	-43.716953	-3881.164937	69.227980	26.654657	-27.727328	1809.439894	16.829304	9.394227	-17.807659	
7.7400	-38.504057	-13.315792	19.010886	-133.623787	785.709647	5.091191	3.610221	-45.000000	38.939198	-45.000000	-23.811772	2783.603951	-475.480271	149.236704	-115.838499	1811.556475	23.142716	18.380826	10.818835	18.571553	39.147946	-41.301425	-44.910505	-43.722460	-3881.470496	68.979780	26.704551	-27.490238	1808.810373	12.033106	9.982507	-17.976511	
7.7500	-38.433642	-13.431032	19.122662	-129.844799	783.503212	5.297306	3.496771	-45.000000	38.972036	-45.000000	-23.622813	2783.813312	-475.842607	149.426685	-115.434738	1811.361531	22.845497	18.257572	11.023507	18.749263	39.165788	-41.387809	-44.839722	-43.673505	-3881.774676	68.736491	26.672296	-27.661238	1808.654762	12.783892	10.002686	-17.933258	
7.7600	-38.351638	-13.487095	19.168896	-126.128886	781.400565	5.534337	3.376233	-45.000000	39.046063	-45.000000	-23.306307	2783.989033	-476.200382	149.613152	-115.018888	1811.170411	22.803446	18.146200	11.173951	18.905644	39.153437	-41.495305	-44.712801	-43.577802	-3882.057680	68.520466	26.634258	-27.803370	1808.509317	13.687697	10.001545	-17.900296	
7.7700	-38.245955	-13.445743	19.107045	-122.497742	779.435456	5.821904	3.264873	-45.000000	39.219653	-45.000000	-22.768459	2784.103579	-476.545425	149.799847	-114.607989	1810.978924	22.944293	18.045312	11.289224	19.021958	39.098352	-41.642203	-44.485807	-43.343684	-3882.271542	68.298886	26.579947	-28.008269	1808.379586	14.739207	9.966165	-17.882113	
7.7800	-38.113108	-13.272005	18.897657	-118.978399	777.646753	6.183479	3.164526	-45.000000	39.520808	-45.000000	-21.937590	2784.139601	-476.883085	149.982336	-114.204085	1810.782922	23.223206	17.950435	11.370200	19.082290	38.976380	-41.837201	-44.121668	-42.913987	-3882.385282	68.072506	26.506028	-28.324045	1808.278626	15.931265	9.897394	-17.875765	
7.7900	-37.933691	-12.812528	18.364490	-115.634627	776.124509	6.693941	3.052977	-45.000000	40.118327	-45.000000	-20.417429	2784.006735	-477.210943	150.183907	-113.778247	1810.586199	23.618336	17.861488	11.426083	19.067923	38.792059	-42.138165	-43.539374	-42.093040	-3882.353804	67.808195	26.392374	-28.765300	1808.237695	17.327136	9.778403	-17.877352	
7.8000	-37.693200	-12.141935	17.617186	-112.515745	774.933064	7.393072	2.932526	-45.000000	40.912115	-45.000000	-18.420101	2783.752308	-477.513896	150.392748	-113.324851	1810.389274	24.073416	17.772713	11.458714	19.005009	38.534703	-42.513208	-42.782748	-40.992070	-3882.205701	67.509224	26.241564	-29.401298	1808.270766	18.857247	9.598412	-17.872573	
7.8100	-37.315867	-11.151567	16.615304	-109.857049	774.418926	8.607883	2.791171	-45.000000	41.912240	-45.000000	-15.811496	2783.349726	-477.768515	150.601446	-112.849951	1810.183290	24.544140	17.667894	11.471489	18.862236	38.182778	-42.971652	-41.837575	-39.548968	-3881.982946	67.165183	26.017047	-30.366223	1808.487959	20.451827	9.346606	-17.810944	
7.8200	-36.833897	-10.073136	15.615676	-107.612528	774.517211	10.193031	2.631959	-45.000000	42.872316	-45.000000	-13.176506	2782.940628	-477.957693	150.787450	-112.393848	1809.981437	24.974628	17.547388	11.470823	18.709374	37.750882	-43.444276	-40.851167	-38.078470	-3881.769848	66.802333	25.752764	-31.583808	1808.835284	21.936910	9.047469	-17.688105	
7.8300	-36.302334	-8.931228	14.581830	-105.774146	775.220757	11.956830	2.460392	-45.000000	43.784867	-45.000000	-10.528326	2782.552376	-478.099559	150.961876	-111.951807	1809.808045	25.366650	17.407958	11.454261	18.524490	37.289572	-43.922356	-39.855736	-36.564751	-3881.575362	66.437770	25.465570	-32.928618	1809.268795	23.269968	8.734045	-17.513863	
7.8400	-35.847097	-8.045432	13.764790	-104.094022	776.155306	13.373442	2.276170	-45.000000	44.392828	-45.000000	-8.520680	2782.358640	-478.207286	151.119923	-111.539277	1809.693858	25.711508	17.260703	11.418598	18.380419	36.867737	-44.308334	-39.004191	-35.285876	-3881.454002	66.127647	25.198410	-34.195313	1809.632331	24.343541	8.456722	-17.342358	
7.8500	-35.578740	-7.360555	12.973987	-102.765742	777.606038	14.027024	2.064304	-45.000000	44.780518	-45.000000	-6.926722	2782.347352	-478.349863	151.309519	-111.069824	1809.728641	26.007835	17.066154	11.347540	18.261612	36.543843	-44.615504	-38.259879	-34.036649	-3881.372220	65.876439	24.937027	-35.300412	1809.899671	25.208334	8.236501	-17.179378	
7.8600	-35.556441	-7.031358	12.325288	-101.510970	779.130749	13.678670	1.866442	-45.000000	44.917367	-45.000000	-5.991343	2782.537492	-478.549743	151.512624	-110.573689	1809.898203	26.249626	16.848396	11.248977	18.188404	36.333097	-44.806921	-37.683882	-32.977523	-3881.318185	65.690734	24.741993	-36.078249	1809.963063	25.901522	8.091516	-17.069013	
7.8700	-35.741106	-6.870900	11.633793	-100.333436	780.694120	12.533265	1.677947	-45.000000	45.000000	-45.000000	-5.248091	2782.813130	-478.818545	151.744556	-110.047415	1810.169649	26.442465	16.610915	11.133597	18.111687	36.241893	-44.934395	-37.183539	-31.896998	-3881.251579	65.557865	24.590107	-36.543918	1809.867209	26.554522	8.006288	-17.012970	
7.8800	-35.992960	-6.895970	11.086244	-98.999572	781.888919	11.163357	1.541724	-45.000000	45.000000	-45.000000	-4.840363	2783.128831	-479.093623	151.938235	-109.607730	1810.423164	26.577493	16.399993	11.022980	18.018816	36.197009	-44.980949	-36.781766	-30.986055	-3881.200013	65.465628	24.503667	-36.787712	1809.664262	27.158105	7.956943	-17.004313	
7.8900	-36.204944	-6.932482	10.603490	-97.722997	782.993786	10.015757	1.439801	-45.000000	45.000000	-45.000000	-4.487726	2783.411532	-479.347633	152.090537	-109.275838	1810.630502	26.634413	16.201013	10.924501	17.887872	36.163651	-45.000000	-36.407504	-30.154990	-3881.176271	65.404003	24.424926	-36.960557	1809.487513	27.702772	7.911340	-16.994667	
7.9000	-36.291315	-6.979685	10.285140	-96.285313	783.644947	9.458489	1.393498	-45.000000	45.000000	-45.000000	-4.250497	2783.632221	-479.530993	152.159672	-109.149322	1810.710514	26.629409	16.061478	10.862654	17.732987	36.079065	-45.000000	-36.088190	-29.541920	-3881.181749	65.341259	24.401723	-37.050210	1809.339502	28.156525	7.869757	-16.983681	
7.9100	-36.278273	-6.993341	10.056422	-94.746902	783.914982	9.390807	1.342703	-45.000000	45.000000	-45.000000	-4.017846	2783.816417	-479.643684	152.184755	-109.189228	1810.688607	26.580498	15.972894	10.838648	17.582052	35.978661	-45.000000	-35.801902	-29.041304	-3881.223012	65.295904	24.386619	-37.051371	1809.220288	28.514362	7.841372	-16.981345	
7.9200	-36.185999	-6.971759	9.901015	-93.153296	783.864627	9.728326	1.284980	-45.000000	45.000000	-45.000000	-3.784796	2783.962955	-479.693231	152.173152	-109.355910	1810.591446	26.508909	15.932048	10.841048	17.443115	35.857282	-45.000000	-35.548096	-28.623672	-3881.289280	65.254294	24.380161	-36.985442	1809.131836	28.772723	7.828937	-16.988857	
7.9300	-36.106262	-6.937211	9.737693	-91.737924	783.858816	10.060036	1.207288	-45.000000	45.000000	-45.000000	-3.530331	2784.107726	-479.728676	152.172215	-109.528311	1810.516773	26.399899	15.894733	10.849038	17.321810	35.761965	-45.000000	-35.313226	-28.205599	-3881.366261	65.226074	24.353098	-36.860770	1809.060695	28.939356	7.828895	-17.002486	
7.9400	-36.041175	-6.899927	9.581780	-90.483405	783.887552	10.382219	1.131445	-45.000000	45.000000	-45.000000	-3.289640	2784.246381	-479.756373	152.173881	-109.696631	1810.464814	26.242156	15.865344	10.863705	17.224198	35.666754	-45.000000	-35.112417	-27.817949	-3881.437056	65.178612	24.340187	-36.695152	1808.991070	29.018807	7.841339	-17.014438	
7.9500	-35.992347	-6.850847	9.422831	-89.370879	783.943121	10.692282	1.041114	-45.000000	45.000000	-45.000000	-3.037173	2784.386711	-479.777136	152.189548	-109.848941	1810.430974	26.033751	15.843001	10.887958	17.142682	35.585976	-45.000000	-34.940581	-27.432092	-3881.515950	65.125785	24.317873	-36.498803	1808.920103	29.024220	7.867818	-17.027897	
7.9600	-35.954556	-6.803664	9.282806	-88.381649	784.019888	10.989453	0.965136	-45.000000	45.000000	-45.000000	-2.812174	2784.513423	-479.798951	152.201031	-109.980852	1810.407751	25.777459	15.822541	10.913826	17.074589	35.510185	-45.000000	-34.789606	-27.088771	-3881.584281	65.067449	24.317144	-36.287570	1808.840060	28.962434	7.902559	-17.034279	
7.9700	-35.927225	-6.756864	9.157472	-87.500000	784.113709	11.273874	0.898179	-45.000000	45.000000	-45.000000	-2.606337	2784.628718	-479.822930	152.209877	-110.089866	1810.391927	25.478863	15.802904	10.942215	17.012672	35.449305	-45.000000	-34.656391	-26.782839	-3881.647240	65.015581	24.327422	-36.069339	1808.756753	28.841141	7.944223	-17.035535	
7.9800	-35.911389	-6.699421	9.029870	-86.712966	784.221451	11.546362	0.831472	-45.000000	45.000000	-45.000000	-2.394395	2784.732779	-479.849844	152.216808	-110.170759	1810.384404	25.147974	15.785442	10.973594	16.970947	35.396707	-45.000000	-34.541063	-26.493823	-3881.695281	64.957226	24.360993	-35.854477	1808.669063	28.673095	7.991585	-17.030582	
7.9900	-35.906388	-6.631800	8.902696	-86.011351	784.340494	11.807300	0.761621	-45.000000	45.000000	-45.000000	-2.177327	2784.827623	-479.876328	152.226524	-110.217751	1810.389958	24.796292	15.771950	11.006666	16.935669	35.359315	-45.000000	-34.443339	-26.218870	-3881.739709	64.903142	24.400825	-35.656811	1808.589260	28.470322	8.043345	-17.024863	
8.0000	-35.907839	-6.562677	8.785886	-85.388224	784.468473	12.056591	0.698050	-45.000000	45.000000	-45.000000	-1.968637	2784.906210	-479.905520	152.231021	-110.231243	1810.401459	24.435985	15.757836	11.033867	16.904220	35.335075	-45.000000	-34.354281	-25.969266	-3881.771266	64.857926	24.450494	-35.479877	1808.522721	28.240948	8.091873	-17.015848	
8.0100	-35.918913	-6.494971	8.682649	-84.838628	784.603121	12.293342	0.637348	-45.000000	45.000000	-45.000000	-1.774706	2784.974258	-479.930829	152.239670	-110.214828	1810.433764	24.078372	15.750184	11.056292	16.866685	35.324907	-45.000000	-34.285449	-25.746431	-3881.808929	64.827802	24.487897	-35.328746	1808.482642	27.993304	8.140121	-17.012465	
8.0200	-35.938893	-6.435188	8.592565	-84.359059	784.741944	12.515984	0.582968	-45.000000	45.000000	-45.000000	-1.594401	2785.030238	-479.963105	152.246624	-110.176846	1810.472732	23.736656	15.744760	11.073032	16.834752	35.312236	-45.000000	-34.235845	-25.546304	-3881.832983	64.791533	24.526649	-35.198658	1808.454603	27.735352	8.179737	-17.004201	
8.0300	-35.964503	-6.384250	8.521509	-83.946646	784.882503	12.722997	0.532655	-45.000000	45.000000	-45.000000	-1.433617	2785.082495	-479.992126	152.258566	-110.123586	1810.523021	23.422410	15.745018	11.084347	16.794614	35.308943	-45.000000	-34.202676	-25.375368	-3881.869043	64.769767	24.543260	-35.097638	1808.442422	27.475619	8.219771	-17.001114	
